<?xml version="1.0" encoding="utf-8"?>
<!-- Generator: Adobe Illustrator 27.3.1, SVG Export Plug-In . SVG Version: 6.00 Build 0)  -->
<svg version="1.1" id="Layer_1" xmlns="http://www.w3.org/2000/svg" xmlns:xlink="http://www.w3.org/1999/xlink" x="0px" y="0px"
	 viewBox="0 0 117 117" style="enable-background:new 0 0 117 117;" xml:space="preserve">
<style type="text/css">
	.st0{opacity:0.86;}
	.st1{clip-path:url(#SVGID_00000180332157936091602780000000676691880947454598_);}
	.st2{fill:#CB6658;}
	.st3{fill:none;stroke:#FFFFFF;stroke-width:10.56;stroke-linejoin:bevel;stroke-miterlimit:10;}
	.st4{fill:none;stroke:#CB6658;stroke-width:11.35;stroke-linejoin:bevel;stroke-miterlimit:10;}
</style>
<g class="st0">
	<defs>
		<rect id="SVGID_1_" class="st0" width="117" height="117"/>
	</defs>
	<clipPath id="SVGID_00000071525624626349670430000002206340493931364787_">
		<use xlink:href="#SVGID_1_"  style="overflow:visible;"/>
	</clipPath>
	<g style="clip-path:url(#SVGID_00000071525624626349670430000002206340493931364787_);">
		<path class="st2" d="M93.4,0H23.6C10.5,0,0,10.5,0,23.6v69.9c0,13,10.5,23.6,23.6,23.6h69.9c13,0,23.6-10.5,23.6-23.6V23.6
			C117,10.5,106.5,0,93.4,0z"/>
		<path class="st3" d="M42.7,33H21.7"/>
		<path class="st3" d="M87.4,37.7c-6.6-6.5-16.5-6.1-22.6,0.3c-1.9,2.1-4,6.6-5.4,9.4c-1.4-2.8-3.5-7.3-5.4-9.4
			c-6.1-6.5-16-6.8-22.6-0.3c-5.1,5-5.2,13.4-2.5,19.4c0.9,2,2.1,3.9,3.5,5.6c3.7,4.7,8.9,8.5,13.7,11.8
			c6.7,4.5,13.3,10.9,13.3,10.9s6.6-6.4,13.3-10.9c4.9-3.3,10-7.1,13.7-11.8c1.4-1.7,2.6-3.6,3.5-5.6C92.5,51,92.4,42.7,87.4,37.7z"
			/>
		<path class="st4" d="M42.7,44H21.7"/>
		<path class="st4" d="M70.1,55H49"/>
	</g>
</g>
</svg>
